HIERARCHY
ROOT Hips
{
  OFFSET 5.72205e-005 65.662 3.42586
  CHANNELS 6 Xposition Yposition Zposition Zrotation Xrotation Yrotation
  JOINT Chest
  {
    OFFSET 0 8.7983 -4.7612
    CHANNELS 3 Zrotation Xrotation Yrotation
    JOINT Chest2
    {
      OFFSET 0 8.0291 0.4195
      CHANNELS 3 Zrotation Xrotation Yrotation
      JOINT Chest3
      {
        OFFSET 0 9.9351 -2.2114
        CHANNELS 3 Zrotation Xrotation Yrotation
        JOINT Neck
        {
          OFFSET 0 22.3885 -0.4656
          CHANNELS 3 Zrotation Xrotation Yrotation
          JOINT Head
          {
            OFFSET -0.0001 12.643 3.4389
            CHANNELS 3 Zrotation Xrotation Yrotation
            End Site
            {
              OFFSET 0.0001 17.6655 0.5274
            }
          }
        }
        JOINT LeftCollar
        {
          OFFSET 2.2603 21.606 7.4023
          CHANNELS 3 Zrotation Xrotation Yrotation
          JOINT LeftShoulder
          {
            OFFSET 13.5163 -1.1332 -5.0146
            CHANNELS 3 Zrotation Xrotation Yrotation
            JOINT LeftElbow
            {
              OFFSET -0.0995 -28.05 -0.2431
              CHANNELS 3 Zrotation Xrotation Yrotation
              JOINT LeftWrist
              {
                OFFSET 0.0679 -23.3996 -0.1402
                CHANNELS 3 Zrotation Xrotation Yrotation
                JOINT LeftFinger1
                {
                  OFFSET 0.7932 -9.069 2.5189
                  CHANNELS 3 Zrotation Xrotation Yrotation
                  JOINT LeftFinger11
                  {
                    OFFSET -0.8272 -3.3923 0.5977
                    CHANNELS 3 Zrotation Xrotation Yrotation
                    JOINT LeftFinger12
                    {
                      OFFSET -0.5649 -2.3158 0.4082
                      CHANNELS 3 Zrotation Xrotation Yrotation
                      End Site
                      {
                        OFFSET -0.4919 -1.6479 0.2673
                      }
                    }
                  }
                }
                JOINT LeftFinger2
                {
                  OFFSET 0.9159 -9.2044 0.2193
                  CHANNELS 3 Zrotation Xrotation Yrotation
                  JOINT LeftFinger21
                  {
                    OFFSET 0.0117 -4.1944 -0.0248
                    CHANNELS 3 Zrotation Xrotation Yrotation
                    JOINT LeftFinger22
                    {
                      OFFSET 0.0071 -2.3249 -0.0142
                      CHANNELS 3 Zrotation Xrotation Yrotation
                      End Site
                      {
                        OFFSET -0.1475 -2.0882 0.0028
                      }
                    }
                  }
                }
                JOINT LeftFinger3
                {
                  OFFSET 0.6113 -8.7231 -2.0637
                  CHANNELS 3 Zrotation Xrotation Yrotation
                  JOINT LeftFinger31
                  {
                    OFFSET -0.1927 -3.8059 -0.2383
                    CHANNELS 3 Zrotation Xrotation Yrotation
                    JOINT LeftFinger32
                    {
                      OFFSET -0.1091 -2.1688 -0.1362
                      CHANNELS 3 Zrotation Xrotation Yrotation
                      End Site
                      {
                        OFFSET -0.2358 -1.9176 -0.0906
                      }
                    }
                  }
                }
                JOINT LeftFinger4
                {
                  OFFSET -0.6151 -8.0947 -3.5641
                  CHANNELS 3 Zrotation Xrotation Yrotation
                  JOINT LeftFinger41
                  {
                    OFFSET -0.4882 -2.341 -0.6462
                    CHANNELS 3 Zrotation Xrotation Yrotation
                    JOINT LeftFinger42
                    {
                      OFFSET -0.3575 -1.7167 -0.4742
                      CHANNELS 3 Zrotation Xrotation Yrotation
                      End Site
                      {
                        OFFSET -0.4187 -1.5237 -0.3496
                      }
                    }
                  }
                }
                JOINT LeftFinger0
                {
                  OFFSET -1.42 -1.8761 1.4223
                  CHANNELS 3 Zrotation Xrotation Yrotation
                  JOINT LeftFinger01
                  {
                    OFFSET -1.1471 -3.4929 2.6334
                    CHANNELS 3 Zrotation Xrotation Yrotation
                    JOINT LeftFinger02
                    {
                      OFFSET -0.823 -2.3 1.6571
                      CHANNELS 3 Zrotation Xrotation Yrotation
                      End Site
                      {
                        OFFSET -0.5822 -1.6914 1.1582
                      }
                    }
                  }
                }
              }
            }
          }
        }
        JOINT RightCollar
        {
          OFFSET -2.2603 21.606 7.4023
          CHANNELS 3 Zrotation Xrotation Yrotation
          JOINT RightShoulder
          {
            OFFSET -13.5187 -1.1334 -5.0155
            CHANNELS 3 Zrotation Xrotation Yrotation
            JOINT RightElbow
            {
              OFFSET 0.0994 -28.0499 -0.2431
              CHANNELS 3 Zrotation Xrotation Yrotation
              JOINT RightWrist
              {
                OFFSET -0.0679 -23.3996 -0.1402
                CHANNELS 3 Zrotation Xrotation Yrotation
                JOINT RightFinger1
                {
                  OFFSET -0.7932 -9.0691 2.5189
                  CHANNELS 3 Zrotation Xrotation Yrotation
                  JOINT RightFinger11
                  {
                    OFFSET 0.8272 -3.3923 0.5977
                    CHANNELS 3 Zrotation Xrotation Yrotation
                    JOINT RightFinger12
                    {
                      OFFSET 0.565 -2.3158 0.4082
                      CHANNELS 3 Zrotation Xrotation Yrotation
                      End Site
                      {
                        OFFSET 0.4919 -1.6479 0.2673
                      }
                    }
                  }
                }
                JOINT RightFinger2
                {
                  OFFSET -0.916 -9.2044 0.2193
                  CHANNELS 3 Zrotation Xrotation Yrotation
                  JOINT RightFinger21
                  {
                    OFFSET -0.0117 -4.1944 -0.0248
                    CHANNELS 3 Zrotation Xrotation Yrotation
                    JOINT RightFinger22
                    {
                      OFFSET -0.0071 -2.3249 -0.0142
                      CHANNELS 3 Zrotation Xrotation Yrotation
                      End Site
                      {
                        OFFSET 0.1475 -2.0882 0.0028
                      }
                    }
                  }
                }
                JOINT RightFinger3
                {
                  OFFSET -0.6113 -8.7231 -2.0637
                  CHANNELS 3 Zrotation Xrotation Yrotation
                  JOINT RightFinger31
                  {
                    OFFSET 0.1927 -3.8059 -0.2383
                    CHANNELS 3 Zrotation Xrotation Yrotation
                    JOINT RightFinger32
                    {
                      OFFSET 0.1091 -2.1688 -0.1362
                      CHANNELS 3 Zrotation Xrotation Yrotation
                      End Site
                      {
                        OFFSET 0.2358 -1.9176 -0.0906
                      }
                    }
                  }
                }
                JOINT RightFinger4
                {
                  OFFSET 0.6151 -8.0947 -3.564
                  CHANNELS 3 Zrotation Xrotation Yrotation
                  JOINT RightFinger41
                  {
                    OFFSET 0.4882 -2.341 -0.6462
                    CHANNELS 3 Zrotation Xrotation Yrotation
                    JOINT RightFinger42
                    {
                      OFFSET 0.3574 -1.7166 -0.4742
                      CHANNELS 3 Zrotation Xrotation Yrotation
                      End Site
                      {
                        OFFSET 0.4187 -1.5237 -0.3496
                      }
                    }
                  }
                }
                JOINT RightFinger0
                {
                  OFFSET 1.4199 -1.8761 1.4221
                  CHANNELS 3 Zrotation Xrotation Yrotation
                  JOINT RightFinger01
                  {
                    OFFSET 1.1472 -3.4929 2.6336
                    CHANNELS 3 Zrotation Xrotation Yrotation
                    JOINT RightFinger02
                    {
                      OFFSET 0.8229 -2.3 1.6571
                      CHANNELS 3 Zrotation Xrotation Yrotation
                      End Site
                      {
                        OFFSET 0.5822 -1.6914 1.1582
                      }
                    }
                  }
                }
              }
            }
          }
        }
      }
    }
  }
  JOINT RightHip
  {
    OFFSET -9.412 3.9771 -0.7758
    CHANNELS 3 Zrotation Xrotation Yrotation
    JOINT RightKnee
    {
      OFFSET -0.7531 -40.938 0
      CHANNELS 3 Zrotation Xrotation Yrotation
      JOINT RightAnkle
      {
        OFFSET 0 -40.1986 0
        CHANNELS 3 Zrotation Xrotation Yrotation
        JOINT RightToe
        {
          OFFSET 0 -4.4182 9.239
          CHANNELS 3 Zrotation Xrotation Yrotation
          End Site
          {
            OFFSET 0 0 6.1981
          }
        }
      }
    }
  }
  JOINT LeftHip
  {
    OFFSET 9.4119 3.9773 -0.7758
    CHANNELS 3 Zrotation Xrotation Yrotation
    JOINT LeftKnee
    {
      OFFSET 0.7532 -40.9383 0
      CHANNELS 3 Zrotation Xrotation Yrotation
      JOINT LeftAnkle
      {
        OFFSET 0 -40.1986 0
        CHANNELS 3 Zrotation Xrotation Yrotation
        JOINT LeftToe
        {
          OFFSET 0 -4.4182 9.239
          CHANNELS 3 Zrotation Xrotation Yrotation
          End Site
          {
            OFFSET 0 0 6.1981
          }
        }
      }
    }
  }
}
MOTION
Frames:	4
Frame Time:	0.0333333
5.72205e-005 65.662 3.42586 0 0 -0 0 0 -0 0 0 -0 0 0 -0 0 0 -0 0 0 -0 0 0 -12.5014 88.1196 14.2451 10.6914 -0.00160068 -0.00239207 0.000740045 -8.4365e-005 7.00714e-005 -9.52055e-007 9.93923e-017 -1.98785e-016 -1.59028e-015 9.93923e-017 -5.96354e-016 -1.59028e-015 -9.93923e-017 -5.96354e-016 -1.59028e-015 9.93923e-017 -1.98785e-016 -1.59028e-015 -0.0128176 0.00232552 8.52707e-005 9.93923e-017 5.96354e-016 -0 9.93923e-017 -1.98785e-016 -1.59028e-015 -0.0160551 0.00299681 0.000857156 -2.48481e-016 0 3.18055e-015 9.93923e-017 -1.98785e-016 -1.59028e-015 -0.0125865 0.0031206 0.00282719 0 1.98785e-016 -0 9.93923e-017 -1.98785e-016 -1.59028e-015 9.93923e-017 -5.96354e-016 -1.59028e-015 -9.93923e-017 -5.96354e-016 -1.59028e-015 -0.865644 0.16582 7.03859 -88.0329 10.2057 -10.5567 0.0015593 -0.00248883 -0.000788628 7.87605e-005 4.10553e-005 1.24965e-005 -3.97569e-016 -7.95139e-016 3.18055e-015 -1.98785e-016 -3.97569e-016 3.18055e-015 -1.98785e-016 0 3.18055e-015 -3.97569e-016 -7.95139e-016 3.18055e-015 0.0129473 0.00231697 -8.70038e-005 9.93923e-017 -7.95139e-016 1.59028e-015 -3.97569e-016 -7.95139e-016 3.18055e-015 0.0163314 0.00303369 -0.000872333 3.97569e-016 7.95139e-016 -3.18055e-015 -3.97569e-016 -7.95139e-016 3.18055e-015 0.0145763 0.00367772 -0.00326275 9.93923e-017 -3.97569e-016 -0 -3.97569e-016 -7.95139e-016 3.18055e-015 -1.98785e-016 -3.97569e-016 3.18055e-015 -1.98785e-016 0 3.18055e-015 3.42482 1.32465 -0.0626183 0.000117508 0.717283 0.000978199 -3.4257 -2.04197 -0.0604716 6.47761e-025 0 -0 -3.42483 1.34017 0.0627307 -0.000193936 0.682302 -0.0013703 3.42574 -2.02253 0.0595886 -8.45714e-024 0 -7.40531e-025 
39.4941 2.13866 9.7312 180 -89.9981 180 -0.0789667 7.72075 -0.142768 -0.14025 15.4418 -0.278534 -0.14025 15.4417 -0.278535 1.46177e-007 18.9975 7.44483e-007 1.95041e-007 5.99853 -9.23303e-009 -0.877495 3.44001 -0.37297 4.2493 33.6864 24.8548 -31.1342 -71.4522 -58.0688 -7.58359 1.69737 -26.5415 -5.10065e-006 8.6932e-006 7.07705e-006 -1.67331e-006 -2.35681e-006 -3.36425e-007 -7.89334e-006 -3.25191e-006 -2.58882e-006 -5.10065e-006 8.6932e-006 7.07705e-006 -0.0128759 0.00233323 7.54811e-005 1.31543e-006 7.97534e-007 -4.33463e-007 -5.10065e-006 8.6932e-006 7.07705e-006 -0.0160947 0.00301397 0.000863126 -1.67331e-006 -1.97172e-006 -3.36513e-007 -5.10065e-006 8.6932e-006 7.07705e-006 -0.0126775 0.00313612 0.00284769 -5.04619e-007 3.38802e-007 -5.50284e-006 -5.10065e-006 8.6932e-006 7.07705e-006 -1.67331e-006 -2.35681e-006 -3.36425e-007 -7.89334e-006 -3.25191e-006 -2.58882e-006 5.11875 -0.371764 15.4632 -25.1145 -16.009 13.6721 51.5658 -45.8573 2.47204 -26.4679 8.13259 -2.74501 -2.86992e-006 6.02923e-006 -3.41732e-006 7.03716e-006 -6.50745e-006 5.40067e-008 -9.80785e-006 7.08794e-006 -1.0677e-006 -2.86992e-006 6.02923e-006 -3.41732e-006 0.012995 0.00231985 -9.40624e-005 8.17174e-007 -9.15005e-007 -4.94849e-006 -2.86992e-006 6.02923e-006 -3.41732e-006 0.01633 0.00303421 -0.000880641 -9.72178e-007 -1.21719e-006 -8.2172e-006 -2.86992e-006 6.02923e-006 -3.41732e-006 0.014592 0.00367354 -0.00327306 -4.588e-006 9.05743e-006 -5.05965e-006 -2.86992e-006 6.02923e-006 -3.41732e-006 7.03716e-006 -6.50745e-006 5.40067e-008 -9.80785e-006 7.08794e-006 -1.0677e-006 -27.8492 -40.4805 11.8247 175.735 69.3277 -178.27 -10.7135 32.5002 41.7968 -3.30661e-007 1.60305e-006 -3.41859e-007 9.06495 4.18814 -25.5157 -5.63537 4.31261 0.147546 13.4633 -6.03406 4.73082 -4.91663e-006 9.05742e-006 1.14339e-006 
39.4937 2.13869 9.73121 -179.999 -89.9981 -179.999 -0.0751096 7.90392 -0.143591 -0.131908 15.808 -0.280675 -0.131908 15.8081 -0.280675 2.40248e-007 19.8535 1.06975e-006 1.03341e-007 6.56948 -1.74516e-007 -1.36092 3.16882 -0.583003 4.73334 33.7075 24.6477 -30.4178 -71.4515 -57.3813 -7.17284 1.09067 -26.2338 -1.19271e-015 3.18055e-015 8.10048e-015 -8.19139e-008 -3.28898e-006 8.08892e-006 -5.45074e-006 7.80988e-006 9.20691e-006 -1.19271e-015 3.18055e-015 8.10048e-015 -0.0127676 0.00231875 9.28615e-005 3.34644e-006 1.06267e-006 6.74001e-007 -1.19271e-015 3.18055e-015 8.10048e-015 -0.0160804 0.00299452 0.000864055 -7.1234e-006 4.8306e-006 8.86955e-006 -1.19271e-015 3.18055e-015 8.10048e-015 -0.0125667 0.00312161 0.00284077 -1.67321e-006 -2.4707e-006 -3.37022e-007 -1.19271e-015 3.18055e-015 8.10048e-015 -8.19139e-008 -3.28898e-006 8.08892e-006 -5.45074e-006 7.80988e-006 9.20691e-006 4.72358 -0.932221 15.2507 -24.8639 -15.9098 13.7897 52.348 -46.7118 3.38725 -26.8708 7.82191 -2.51014 -6.36111e-015 -7.95139e-016 -5.96354e-016 -3.18055e-015 -2.38542e-015 -0 5.51738e-033 -1.59028e-015 1.98785e-016 -6.36111e-015 -7.95139e-016 -5.96354e-016 0.0129573 0.00231121 -7.95654e-005 3.18055e-015 7.95139e-016 -1.98785e-016 -6.36111e-015 -7.95139e-016 -5.96354e-016 0.0163529 0.00304167 -0.000872938 -6.36111e-015 0 1.98785e-016 -6.36111e-015 -7.95139e-016 -5.96354e-016 0.0145998 0.0036675 -0.00326211 1.65521e-032 -1.59028e-015 5.96354e-016 -6.36111e-015 -7.95139e-016 -5.96354e-016 -3.18055e-015 -2.38542e-015 -0 5.51738e-033 -1.59028e-015 1.98785e-016 -28.9632 -40.6412 10.5268 175.735 69.3286 -178.275 -11.9656 32.3557 42.4923 3.72721e-017 0 -1.2424e-016 9.06533 4.1882 -25.5157 -5.63539 4.31237 0.147508 13.4631 -6.03403 4.73082 1.69524e-006 -4.08531e-009 3.31392e-006 
39.4932 2.13872 9.73118 180 -89.9981 180 -0.07124 8.08713 -0.144446 -0.12352 16.1744 -0.282916 -0.12352 16.1745 -0.282916 3.01287e-008 20.7101 7.53478e-007 -3.46011e-007 7.14061 -1.30357e-007 -1.84538 2.89938 -0.795326 5.21767 33.727 24.4404 -29.7015 -71.4479 -56.6938 -6.75862 0.485803 -25.9217 -4.40213e-006 1.14709e-005 2.82347e-006 -1.32307e-006 -5.8652e-007 -2.46515e-006 -2.3733e-006 -1.90053e-006 3.91826e-006 -4.40213e-006 1.14709e-005 2.82347e-006 -0.0128698 0.00232896 8.83316e-005 1.19271e-015 4.77083e-015 6.36111e-015 -4.40213e-006 1.14709e-005 2.82347e-006 -0.0160841 0.00300376 0.000870553 -5.01944e-006 -1.99221e-006 -1.0123e-006 -4.40213e-006 1.14709e-005 2.82347e-006 -0.012525 0.0030974 0.00281342 -9.93923e-016 -4.77083e-015 6.4605e-015 -4.40213e-006 1.14709e-005 2.82347e-006 -1.32307e-006 -5.8652e-007 -2.46515e-006 -2.3733e-006 -1.90053e-006 3.91826e-006 4.32607 -1.49144 15.0341 -24.6133 -15.8101 13.9068 53.1634 -47.5584 4.33545 -27.2723 7.50947 -2.27758 9.54166e-015 1.59028e-015 -3.97569e-016 9.54166e-015 -7.95139e-016 1.98785e-016 6.36111e-015 0 -0 9.54166e-015 1.59028e-015 -3.97569e-016 0.0129289 0.00230311 -8.73e-005 -8.27607e-033 7.95139e-016 5.96354e-016 9.54166e-015 1.59028e-015 -3.97569e-016 0.0162746 0.00301173 -0.000862507 3.18055e-015 -1.59028e-015 1.39149e-015 9.54166e-015 1.59028e-015 -3.97569e-016 0.0145823 0.00366764 -0.0032675 -3.18055e-015 -1.59028e-015 1.98785e-016 9.54166e-015 1.59028e-015 -3.97569e-016 9.54166e-015 -7.95139e-016 1.98785e-016 6.36111e-015 0 -0 -30.0857 -40.7821 9.22067 175.735 69.3304 -178.28 -13.2145 32.1985 43.1832 3.83396e-007 1.23726e-008 1.90977e-007 9.06555 4.18796 -25.5157 -5.63554 4.31311 0.147602 13.4629 -6.03464 4.73087 -1.57446e-006 -1.14847e-006 4.60404e-006 
